# xmcd CD database file
#
# Track frame offsets:
#	150
#	18652
#	40955
#	66420
#	74892
#	89270
#	104517
#	117320
#	144575
#	161440
#	180140
#	197747
#	207025
#
# Disc length: 3024 seconds
#
# Revision: 0
# Processed by: cddbd v1.5.2PL0 Copyright (c) Steve Scherf et al.
# Submitted via: CDex 1.51
#
DISCID=bd0bce0d
DTITLE=Baptist, Maria - Sometimes Alone
DYEAR=2006
DGENRE=Jazz
TTITLE0=autumn and spring
TTITLE1=avus
TTITLE2=as long as we are searching for
TTITLE3=almost midnight
TTITLE4=thunderstorm
TTITLE5=hymn to november '89
TTITLE6=two different languages
TTITLE7=sometimes alone
TTITLE8=mystic dance
TTITLE9=moon and earth
TTITLE10=longing
TTITLE11=warm up
TTITLE12=colors with a blue feeling
EXTD=YEAR: 2006
EXTT0=
EXTT1=
EXTT2=
EXTT3=
EXTT4=
EXTT5=
EXTT6=
EXTT7=
EXTT8=
EXTT9=
EXTT10=
EXTT11=
EXTT12=
PLAYORDER=
